<svg version="1.1" xmlns="http://www.w3.org/2000/svg" xmlns:xlink="http://www.w3.org/1999/xlink" x="0px" y="0px" viewBox="0 0 448.5 101.4" style="enable-background:new 0 0 448.5 101.4;" xml:space="preserve" alt="Assently">
	<g id="symbol">
		<path d="M49.8,47.3c4.6,0,9.2-0.6,13.7-1.7c3.9-19.3-1.7-37-15.1-43.1c-5.6-2.4-11.8-2.8-17.6-1.1C19.6,5.7,12.2,13.6,12.2,22.7C12.2,36.3,29,47.3,49.8,47.3z" fill="#ffffff"></path> 
		<path d="M87.4,22.7c0-10.2-9.5-19-23-22.7c6.6,11.8,8.8,27.3,5.9,43.3C80.6,38.9,87.4,31.3,87.4,22.7z" fill="#ffffff"></path>
		<path d="M26.4,91.9c12.4-3.7,24.8-15.1,32.2-31.3c0.2-0.5,0.4-1,0.6-1.4c-3.1,0.4-6.3,0.6-9.4,0.6c-21,0-39.3-8.9-48.8-21.9c-0.7,3.2-1,6.4-1,9.7C0,66.1,10.1,83.1,26.4,91.9z" fill="#ffffff"></path>
		<path d="M66.2,58c-0.7,1.7-1.4,3.5-2.2,5.2c-6.5,14.2-16.3,25.6-27.3,33c4.5,1.2,9.1,1.9,13.7,1.9c27.8,0,50.4-22.5,50.4-50.4c0,0,0,0,0,0c0-3.8-0.4-7.5-1.3-11.2C92.9,46.7,80.8,54.5,66.2,58z" fill="#ffffff"></path>
	</g> 
	<g id="text"> 
		<path d="M320.6,73.8V45.3c0-4.9,4-8.9,8.9-8.9c4.9,0,8.9,4,8.9,8.9c0,0,0,0,0,0v28.5h14.1V45.3c0-12.8-10.3-23.1-23.1-23.1s-23.1,10.3-23.1,23.1v28.5H320.6z" fill="#ffffff"></path> 
		<path d="M371.1,52.7V41.3h8V27.1h-8V14H357v38.7c0,12.8,10.3,23.1,23.1,23.1V61.7C375.1,61.7,371.1,57.7,371.1,52.7z" fill="#ffffff"></path> 
		<path d="M199.2,37.3c-0.3-3.5-2.6-5.6-5.7-5.6c-3.3,0-5.1,2.2-5.1,4.4c0,2.8,1.6,4.6,10,7.5c10.5,3.4,14.3,8.7,14.3,15.9c0,9.1-7,16-19.2,16c-12.7,0-18.7-6.6-19.2-16.3h12.6c0.3,3.9,2.4,6.8,7,6.8c3.5,0,5.7-2.4,5.7-5.3c0-3.4-2.4-5.5-9.9-8c-9.3-3-14.2-7.7-14.2-15.5c0-8.9,7.3-14.9,18-14.9c11,0,17.1,6.3,18.2,15.1h-12.5V37.3z" fill="#ffffff"></path> 
		<path d="M238.8,37.3c-0.3-3.5-2.6-5.6-5.7-5.6c-3.3,0-5.1,2.2-5.1,4.4c0,2.8,1.6,4.6,10,7.5c10.5,3.4,14.3,8.7,14.3,15.9c0,9.1-7,16-19.2,16c-12.7,0-18.7-6.6-19.2-16.3h12.6c0.3,3.9,2.4,6.8,7,6.8c3.5,0,5.7-2.4,5.7-5.3c0-3.4-2.4-5.5-9.9-8c-9.3-3-14.2-7.7-14.2-15.5c0-8.9,7.3-14.9,18-14.9c11,0,17.1,6.3,18.2,15.1h-12.5V37.3z" fill="#ffffff"></path> 
		<path d="M303.7,48.4c0,1.2,0,2.5-0.2,3.7h-37c0.1,7.1,5.8,12.7,12.9,12.8c4,0.1,7.8-1.8,10-5.2H303c-3.2,8.4-10.6,15.7-23.7,15.7c-14.9,0-26.5-10.8-26.5-27c0-14.2,9.3-26.2,25.6-26.2S303.7,34.5,303.7,48.4z M266.6,42.6h23.3c-0.6-6.4-6.3-11.2-12.7-10.6C271.6,32.6,267.1,37,266.6,42.6z" fill="#ffffff"></path> 
		<rect x="383.5" y="14" width="14" height="61.8" fill="#ffffff"></rect> 
		<path d="M172.9,47.4c0-0.6,0-1.1-0.1-1.7c0,0.1,0,0.1-0.1,0.1l0,0c-0.5-6.3-2.2-12.8-7.4-17.1l-0.1-0.1c-4.2-4.1-10.2-6.7-17.7-6.7h-0.1c-15.9,0-25.3,12.2-25.3,26.8c0,7.9,2.7,14.6,7.2,19.4c4,4.1,9.5,6.4,15.3,6.4c5.9,0.1,11.6-2.6,15.3-7.2h0.3v6.5h12.6V58.4C172.9,55.3,173.1,51.5,172.9,47.4z M147.1,63c-8.5,0-12.8-7.3-12.8-14.3c0-7.5,4.2-14.3,12.9-14.3c6.8,0,12.4,5.7,12.4,14.3S153.9,63,147.1,63z" fill="#ffffff"></path> 
		<path d="M421.3,101.4H408l9.1-24.8L399,27.2h14.6l7.2,21.6c1.3,4,2.5,8.1,3.3,12.3h0.4c0.8-4.2,1.9-8.3,3.2-12.3l7-21.6h13.8L421.3,101.4z" fill="#ffffff"></path> 
	</g> 
</svg>